<svg xmlns:xlink="http://www.w3.org/1999/xlink" xmlns="http://www.w3.org/2000/svg" viewBox="0 0 24 24" width="24" height="24"><defs><symbol id="icon-cart-remove" viewBox="0 0 24 24" stroke="#0F1111" fill="none" stroke-linecap="round" stroke-linejoin="round">
<polyline points="3 6 5 6 21 6" stroke="#0F1111" fill="none"></polyline><path d="M19 6v14a2 2 0 0 1-2 2H7a2 2 0 0 1-2-2V6m3 0V4a2 2 0 0 1 2-2h4a2 2 0 0 1 2 2v2" stroke="#0F1111" fill="none"></path><line x1="10" y1="11" x2="10" y2="17" stroke="#0F1111" fill="none"></line><line x1="14" y1="11" x2="14" y2="17" stroke="#0F1111" fill="none"></line>
</symbol></defs><g stroke-width="1.5px">
<polyline points="3 6 5 6 21 6" stroke="#0F1111" fill="none"></polyline><path d="M19 6v14a2 2 0 0 1-2 2H7a2 2 0 0 1-2-2V6m3 0V4a2 2 0 0 1 2-2h4a2 2 0 0 1 2 2v2" stroke="#0F1111" fill="none"></path><line x1="10" y1="11" x2="10" y2="17" stroke="#0F1111" fill="none"></line><line x1="14" y1="11" x2="14" y2="17" stroke="#0F1111" fill="none"></line>
</g></svg>