<svg xmlns:xlink="http://www.w3.org/1999/xlink" xmlns="http://www.w3.org/2000/svg" viewBox="0 0 24 24" width="20" height="20">
<defs>
<symbol id="icon-cart-edit" viewBox="0 0 24 24" stroke="#0F1111" fill="none" stroke-linecap="round" stroke-linejoin="round">
<path d="M11 4H4a2 2 0 0 0-2 2v14a2 2 0 0 0 2 2h14a2 2 0 0 0 2-2v-7" stroke="#0F1111" fill="none"></path>
<path d="M18.5 2.5a2.121 2.121 0 0 1 3 3L12 15l-4 1 1-4 9.5-9.5z" stroke="#0F1111" fill="none"></path>
</symbol>
</defs>

<g stroke-width="1.5px">
<path d="M11 4H4a2 2 0 0 0-2 2v14a2 2 0 0 0 2 2h14a2 2 0 0 0 2-2v-7" stroke="#0F1111" fill="none"></path>
<path d="M18.5 2.5a2.121 2.121 0 0 1 3 3L12 15l-4 1 1-4 9.5-9.5z" stroke="#0F1111" fill="none"></path>
</g>

</svg>